# xmcd CD database file
#
# Track frame offsets:
#	150
#	22537
#	70462
#	96412
#	135487
#	165312
#
# Disc length: 2699 seconds
#
# Revision: 0
# Processed by: cddbd v1.4PL0 Copyright (c) Steve Scherf et al.
# Submitted via: CDex 1.50Beta7
#
DISCID=410a8906
DTITLE=Manfred Wieczorke - Transfer
DYEAR=1987
DGENRE=Jazz
TTITLE0=Andaluz
TTITLE1=Spirit Of Djema El Fnaa
TTITLE2=Qued
TTITLE3=54 Degree
TTITLE4=Dance
TTITLE5=Too High
EXTD=YEAR: 1987
EXTT0=
EXTT1=
EXTT2=
EXTT3=
EXTT4=
EXTT5=
PLAYORDER=
